<svg width="46" height="60" viewBox="0 0 46 60" fill="none" xmlns="http://www.w3.org/2000/svg">
<path fill-rule="evenodd" clip-rule="evenodd" d="M11.6868 2H34.1939V8.89575C34.1939 10.2984 35.3072 11.4459 36.6675 11.4459H43.5751V48.3656C43.5751 49.7682 42.4619 50.9157 41.1012 50.9157H11.6868C10.3261 50.9157 9.21289 49.7682 9.21289 48.3656V4.55051C9.21289 3.1479 10.3261 2.00035 11.6868 2.00035V2Z" stroke="#EA5D4A" stroke-width="3" stroke-miterlimit="2.61313" stroke-linecap="round" stroke-linejoin="round"/>
<path fill-rule="evenodd" clip-rule="evenodd" d="M43.5765 11.4459H36.6689C35.3086 11.4459 34.1953 10.2983 34.1953 8.89575V2L43.5768 11.4456L43.5765 11.4459Z" stroke="#EA5D4A" stroke-width="3" stroke-miterlimit="2.61313" stroke-linecap="round" stroke-linejoin="round"/>
<path d="M16.4141 17.1243H36.3768" stroke="#EA5D4A" stroke-width="3" stroke-miterlimit="2.61313" stroke-linecap="round" stroke-linejoin="round"/>
<path d="M16.4141 21.7913H36.3768" stroke="#EA5D4A" stroke-width="3" stroke-miterlimit="2.61313" stroke-linecap="round" stroke-linejoin="round"/>
<path d="M16.4141 26.4573H36.3768" stroke="#EA5D4A" stroke-width="3" stroke-miterlimit="2.61313" stroke-linecap="round" stroke-linejoin="round"/>
<path d="M16.4141 31.1243H36.3768" stroke="#EA5D4A" stroke-width="3" stroke-miterlimit="2.61313" stroke-linecap="round" stroke-linejoin="round"/>
<path d="M16.4141 35.7913H36.3768" stroke="#EA5D4A" stroke-width="3" stroke-miterlimit="2.61313" stroke-linecap="round" stroke-linejoin="round"/>
<path fill-rule="evenodd" clip-rule="evenodd" d="M4.47357 9.08423H9.2131V48.3655C9.2131 49.7681 10.3263 50.9156 11.687 50.9156H36.3622V55.4498C36.3622 56.8524 35.249 58 33.8887 58H4.4739C3.11324 58 2 56.8524 2 55.4498V11.6347C2 10.2321 3.11324 9.08458 4.4739 9.08458L4.47357 9.08423Z" stroke="#EA5D4A" stroke-width="3" stroke-miterlimit="2.61313" stroke-linecap="round" stroke-linejoin="round"/>
</svg>
